<svg width="1200" height="675" viewBox="0 0 1200 675" fill="none" xmlns="http://www.w3.org/2000/svg">
  <rect width="1200" height="675" rx="28" fill="#0F172A"/>
  <rect x="56" y="56" width="1088" height="563" rx="24" fill="#111827"/>
  <rect x="96" y="104" width="184" height="36" rx="18" fill="#FB7185" fill-opacity="0.18"/>
  <rect x="96" y="174" width="592" height="74" rx="18" fill="#E5E7EB" fill-opacity="0.08"/>
  <rect x="96" y="278" width="504" height="22" rx="11" fill="#94A3B8" fill-opacity="0.24"/>
  <rect x="96" y="316" width="470" height="22" rx="11" fill="#94A3B8" fill-opacity="0.18"/>
  <rect x="96" y="354" width="520" height="22" rx="11" fill="#94A3B8" fill-opacity="0.18"/>
  <rect x="96" y="438" width="200" height="54" rx="16" fill="#F43F5E"/>
  <rect x="766" y="120" width="302" height="412" rx="24" fill="#0B1220" stroke="#334155" stroke-width="2"/>
  <rect x="810" y="168" width="214" height="132" rx="18" fill="#1F2937"/>
  <rect x="836" y="202" width="162" height="18" rx="9" fill="#FB7185"/>
  <rect x="836" y="236" width="132" height="12" rx="6" fill="#94A3B8"/>
  <rect x="810" y="336" width="214" height="14" rx="7" fill="#FB7185"/>
  <rect x="810" y="370" width="182" height="14" rx="7" fill="#6B7280"/>
  <rect x="810" y="404" width="196" height="14" rx="7" fill="#4B5563"/>
</svg>
