<svg width="1200" height="675" viewBox="0 0 1200 675" fill="none" xmlns="http://www.w3.org/2000/svg">
  <rect width="1200" height="675" rx="28" fill="#111827"/>
  <rect x="58" y="58" width="1084" height="559" rx="26" fill="#0B1220"/>
  <rect x="96" y="104" width="214" height="36" rx="18" fill="#F59E0B" fill-opacity="0.18"/>
  <rect x="96" y="176" width="566" height="70" rx="18" fill="#E5E7EB" fill-opacity="0.08"/>
  <rect x="96" y="274" width="486" height="22" rx="11" fill="#94A3B8" fill-opacity="0.24"/>
  <rect x="96" y="312" width="520" height="22" rx="11" fill="#94A3B8" fill-opacity="0.18"/>
  <rect x="96" y="350" width="440" height="22" rx="11" fill="#94A3B8" fill-opacity="0.18"/>
  <rect x="96" y="432" width="210" height="54" rx="16" fill="#F59E0B"/>
  <rect x="760" y="124" width="306" height="408" rx="24" fill="#111827" stroke="#374151" stroke-width="2"/>
  <rect x="808" y="170" width="120" height="120" rx="20" fill="#F59E0B" fill-opacity="0.18"/>
  <path d="M868 200C834.863 200 808 226.863 808 260C808 293.137 834.863 320 868 320C901.137 320 928 293.137 928 260C928 226.863 901.137 200 868 200ZM868 218C891.196 218 910 236.804 910 260C910 283.196 891.196 302 868 302C844.804 302 826 283.196 826 260C826 236.804 844.804 218 868 218Z" fill="#FBBF24"/>
  <rect x="808" y="356" width="190" height="14" rx="7" fill="#FBBF24"/>
  <rect x="808" y="392" width="158" height="14" rx="7" fill="#6B7280"/>
  <rect x="808" y="428" width="180" height="14" rx="7" fill="#4B5563"/>
</svg>
