<svg width="1200" height="675" viewBox="0 0 1200 675" fill="none" xmlns="http://www.w3.org/2000/svg">
  <rect width="1200" height="675" rx="28" fill="#0F172A"/>
  <rect x="60" y="60" width="1080" height="555" rx="24" fill="#111827"/>
  <rect x="96" y="108" width="250" height="36" rx="18" fill="#0EA5E9" fill-opacity="0.18"/>
  <rect x="96" y="182" width="640" height="72" rx="16" fill="#E2E8F0" fill-opacity="0.08"/>
  <rect x="96" y="278" width="510" height="24" rx="12" fill="#94A3B8" fill-opacity="0.25"/>
  <rect x="96" y="320" width="452" height="24" rx="12" fill="#94A3B8" fill-opacity="0.18"/>
  <rect x="96" y="362" width="478" height="24" rx="12" fill="#94A3B8" fill-opacity="0.18"/>
  <rect x="96" y="450" width="190" height="52" rx="16" fill="#0EA5E9"/>
  <rect x="796" y="132" width="260" height="360" rx="24" fill="#0B1220" stroke="#1E293B" stroke-width="2"/>
  <rect x="836" y="188" width="180" height="14" rx="7" fill="#38BDF8"/>
  <rect x="836" y="232" width="146" height="14" rx="7" fill="#64748B"/>
  <rect x="836" y="268" width="168" height="14" rx="7" fill="#475569"/>
  <circle cx="926" cy="380" r="64" fill="#0EA5E9" fill-opacity="0.18"/>
  <path d="M898 380H954" stroke="#38BDF8" stroke-width="18" stroke-linecap="round"/>
  <path d="M926 352V408" stroke="#38BDF8" stroke-width="18" stroke-linecap="round"/>
</svg>
